<svg width="126" height="715" viewBox="0 0 126 715" fill="none" xmlns="http://www.w3.org/2000/svg">
<path fill-rule="evenodd" clip-rule="evenodd" d="M94.5426 100.111C79.7492 61.7403 45.5109 31.7831 14.2391 14.2444L16.1958 10.7556C47.9239 28.5502 83.0241 59.1151 98.2749 98.6721C113.607 138.439 108.719 186.884 61.2062 239.836C19.9432 285.821 2.57518 331.419 4.09105 370.422C5.60467 409.367 25.9482 442.013 60.7243 462.272L60.8783 462.362L61.014 462.477C93.7614 490.354 119.634 527.909 124.331 571.347C129.037 614.868 112.443 663.858 61.1213 714.425L58.3139 711.575C108.993 661.642 124.898 613.798 120.354 571.778C115.808 529.733 90.7438 493.081 58.556 465.638C22.7594 444.723 1.66153 410.908 0.0940676 370.578C-1.4734 330.247 16.4919 283.679 58.229 237.164C104.893 185.16 109.255 138.271 94.5426 100.111Z" fill="#A4CBDE"/>
<path d="M27.2175 12.5C27.2175 19.4036 21.6211 25 14.7175 25C7.81397 25 2.21753 19.4036 2.21753 12.5C2.21753 5.59644 7.81397 0 14.7175 0C21.6211 0 27.2175 5.59644 27.2175 12.5Z" fill="#A4CBDE"/>
<path d="M75.2175 465.5C75.2175 472.404 69.6211 478 62.7175 478C55.814 478 50.2175 472.404 50.2175 465.5C50.2175 458.596 55.814 453 62.7175 453C69.6211 453 75.2175 458.596 75.2175 465.5Z" fill="#A4CBDE"/>
<path d="M75.2175 700.5C75.2175 707.404 69.6211 713 62.7175 713C55.814 713 50.2175 707.404 50.2175 700.5C50.2175 693.596 55.814 688 62.7175 688C69.6211 688 75.2175 693.596 75.2175 700.5Z" fill="#A4CBDE"/>
<path d="M75.2175 237.5C75.2175 244.404 69.6211 250 62.7175 250C55.814 250 50.2175 244.404 50.2175 237.5C50.2175 230.596 55.814 225 62.7175 225C69.6211 225 75.2175 230.596 75.2175 237.5Z" fill="#A4CBDE"/>
</svg>
