<svg width="92" height="92" viewBox="0 0 92 92" fill="none" xmlns="http://www.w3.org/2000/svg">
<path d="M46 0C20.625 0 0 20.625 0 46C0 71.375 20.625 92 46 92C71.375 92 92 71.375 92 46C92 20.625 71.375 0 46 0ZM46 4C69.2109 4 88 22.7891 88 46C88 46.1406 87.9922 46.2812 87.9922 46.4297C86.7109 46.3047 85.2344 46.1953 83.3516 46.1328C80.6953 46.0313 77.3437 46.0625 73.5469 46.25C73.6875 45.2656 73.7891 44.2734 73.7891 43.2578C73.9844 39.5078 72.7266 36.0078 70.6797 32.9141C71.1719 31.2031 71.75 29.0313 71.8984 26.5703C72.0625 23.7578 71.8203 20.6406 69.5703 18.5391L68.9922 18H68.2031C62.8359 18 59.1563 20.25 56.9141 22.0234C53.6719 20.7734 50.0234 20 46 20C41.9531 20 38.2734 20.7813 34.8984 22.0391C32.6484 20.25 28.9766 18 23.6016 18H22.8203L22.2422 18.5391C20.0391 20.5781 19.8359 23.6016 19.9766 26.3984C20.0938 28.8594 20.6406 31.1016 21.1328 32.8984C19.0469 36.0469 17.8047 39.6406 17.8047 43.2031C17.8047 44.2188 17.8984 45.2188 18.0391 46.2031C14.4219 46.0391 11.2031 46 8.64844 46.0938C6.76562 46.1641 5.28906 46.2734 4.00781 46.3906C4.00781 46.2578 4 46.1328 4 46C4 22.7891 22.7891 4 46 4ZM24.7891 22.2578C28.8281 22.6406 31.8672 24.4453 33.2656 25.6953L34.2031 26.5234L35.3594 26.0469C38.5234 24.75 42.0547 24 46 24C49.9453 24 53.4766 24.75 56.3984 26.0312L57.5703 26.5469L58.5234 25.6953C59.9297 24.4453 62.9766 22.6406 67.0078 22.2578C67.5469 23.1484 68.0156 24.4141 67.8984 26.3281C67.7656 28.625 67.1562 31.1172 66.6875 32.6016L66.3906 33.5625L66.9844 34.3828C68.9687 37.0781 69.9766 40 69.8047 43.0859L69.7969 43.1406V43.1953C69.7969 48.1875 68 52.1875 64.1719 55.1406C60.3516 58.1016 54.3047 60 45.7969 60C37.2969 60 31.25 58.1016 27.4219 55.1406C23.5938 52.1875 21.7969 48.1875 21.7969 43.1953C21.7969 40.2734 22.8594 37.0469 24.8125 34.3828L25.3984 33.5859L25.1172 32.6328C24.6562 31.0625 24.0859 28.5078 23.9688 26.2031C23.875 24.2891 24.3359 23.0703 24.7891 22.2578ZM13.7656 48.0391C15.1797 48.0625 16.8047 48.1406 18.4219 48.2188C18.5781 48.8438 18.7578 49.4531 18.9688 50.0547C12.3594 50.1953 7.40625 50.8594 4.35938 51.4297C4.22656 50.4297 4.125 49.4219 4.07031 48.3984C6.32812 48.1875 9.5 47.9922 13.7656 48.0391ZM78.2266 48.0703C82.4922 48.0234 85.6719 48.2187 87.9219 48.4297C87.8672 49.4375 87.7656 50.4297 87.6406 51.4141C84.4844 50.8359 79.3984 50.1719 72.6094 50.0625C72.8203 49.4766 73 48.875 73.1484 48.2656C74.9453 48.1719 76.6875 48.0938 78.2266 48.0703ZM19.8203 52.0391C21.0156 54.4297 22.7266 56.5625 24.9766 58.3125C28.0547 60.6875 32.0625 62.3594 36.9531 63.25C36.3125 63.9062 35.7344 64.625 35.2109 65.3906L35.0938 65.2812C35.1016 65.2656 34.1016 65.7734 32.6016 65.9062C31.0938 66.0391 29.2422 66 27.6016 66C25.1484 66 24.0703 64.8437 22.3516 62.7344C21.3906 61.4453 20.2266 60.4062 19.1016 59.6172C17.9375 58.8047 16.9531 58.2344 15.7344 58.0312L15.5703 58H15.3984C14.4687 58 13.5625 58.0703 12.7188 59.0312C12.2969 59.5156 12.0078 60.4063 12.1953 61.1641C12.3828 61.9141 12.8594 62.3828 13.2891 62.6641C16.0234 64.4844 16.5078 68.0937 18.2188 71.3047C19.8203 74.4922 23.2734 76 26.8047 76H32V85.6094C17.9375 80.6406 7.32812 68.4062 4.66406 53.4062C7.72656 52.8281 12.8516 52.1328 19.8281 52.0391H19.8203ZM71.7656 52.0547C78.8906 52.1172 84.1641 52.8047 87.3359 53.3906C84.6797 68.4063 74.0703 80.6406 60 85.6016V75.1953C60 72.0313 58.9609 68.5391 57.1484 65.6172C56.6016 64.7344 55.9531 63.8984 55.2266 63.1484C59.8594 62.2344 63.6641 60.5937 66.625 58.3047C68.875 56.5703 70.5781 54.4375 71.7656 52.0547ZM43.3984 64.1953H49C50.625 64.1953 52.3594 65.4922 53.75 67.7266C55.1406 69.9688 56 72.9688 56 75.1953V86.7969C52.7969 87.5781 49.4453 88 46 88C42.5547 88 39.2031 87.5781 36 86.7969V75.1953C36 73.0156 36.9375 70.0234 38.4141 67.7734C39.8984 65.5312 41.7734 64.1953 43.3984 64.1953ZM20.6172 66.5625C22.3516 68.3594 24.4453 70 27.6016 70C29.1563 70 31.1016 70.0547 32.9531 69.8906C32.9609 69.8906 32.9688 69.8906 32.9766 69.8828C32.7266 70.5859 32.5469 71.2891 32.3984 72H26.8047C24.3359 72 22.5938 71.1094 21.7891 69.5078L21.7734 69.4766L21.7656 69.4531C21.4297 68.8438 21 67.625 20.6172 66.5625Z" fill="#80ADBC"/>
</svg>
