<svg width="72" height="73" viewBox="0 0 72 73" fill="none" xmlns="http://www.w3.org/2000/svg">
<path d="M20.6619 0.625C9.30322 0.625 0.0625 9.86572 0.0625 21.2244V51.9006C0.0625 63.2593 9.30322 72.5 20.6619 72.5H51.3381C62.6968 72.5 71.9375 63.2593 71.9375 51.9006V21.2244C71.9436 20.6567 71.6506 20.1318 71.1623 19.8511C70.6741 19.5642 70.0759 19.5642 69.5876 19.8511C69.0994 20.1318 68.8064 20.6567 68.8125 21.2244V51.9006C68.8125 61.5686 61.0061 69.375 51.3381 69.375H20.6619C10.9939 69.375 3.1875 61.5686 3.1875 51.9006V21.2244C3.1875 11.5564 10.9939 3.75 20.6619 3.75H51.3381C56.0317 3.75 60.0173 6.39892 61.47 9.45679C62.1963 10.9827 62.3428 12.5635 61.7507 14.1565C61.415 15.0598 60.7253 15.9814 59.7976 16.897C58.8943 15.0232 57.759 13.4546 56.3003 12.6062C54.0176 11.2878 51.1977 11.3245 49.3362 13.0396C49.3057 13.064 49.2812 13.0945 49.2568 13.1189C48.1399 14.3091 47.6638 15.8411 47.8042 17.2571C47.9385 18.6792 48.6343 19.967 49.6658 20.9436C51.6006 22.7808 54.8477 23.4094 58.0581 21.8896C60.7131 41.2317 48.085 52.1875 36 52.1875C30.1101 52.1875 26.7959 49.7522 24.7146 46.7676C22.6333 43.7769 21.9375 40.0842 21.9375 38.125C21.9375 35.9583 22.6699 32.3206 24.7695 29.397C26.8691 26.4734 30.2017 24.1174 36.0183 24.0625C42.3782 24.0015 45.9243 27.9871 46.8826 32.5098C47.8347 37.0264 46.1196 41.8176 41.1758 43.6426C40.3701 43.9355 39.9551 44.8389 40.2541 45.6445C40.5532 46.4563 41.4504 46.8713 42.2561 46.5723C48.6892 44.2041 51.1611 37.6306 49.9343 31.8628C48.7136 26.0889 43.7209 20.8643 35.9817 20.9375C29.2983 20.9985 24.8184 23.9648 22.2305 27.5781C19.6426 31.1853 18.8125 35.3052 18.8125 38.125C18.8125 40.7556 19.5876 44.8755 22.145 48.5498C24.7085 52.2241 29.2068 55.3125 36 55.3125C50.2578 55.3125 64.6255 41.8665 61.061 20.321C61.0366 20.1624 60.9451 20.0769 60.9145 19.9304C62.6602 18.5022 64.0456 16.9519 64.6804 15.2429C65.5776 12.8259 65.3274 10.2869 64.2898 8.11401C62.2146 3.7561 57.1731 0.625 51.3381 0.625H20.6619ZM52.864 14.7729C53.4194 14.7546 54.0481 14.9194 54.7317 15.3162C55.7082 15.8838 56.5933 17.1716 57.2646 18.8501C57.2158 18.8745 57.1975 18.905 57.1487 18.9355C54.7683 20.2905 52.9006 19.7107 51.8203 18.6792C51.2771 18.1665 50.9658 17.5317 50.9109 16.958C50.856 16.3965 51.0085 15.8777 51.5151 15.3162C51.8752 14.9988 52.3269 14.7974 52.864 14.7791V14.7729Z" fill="#80ADBC"/>
</svg>
