<svg width="92" height="92" viewBox="0 0 92 92" fill="none" xmlns="http://www.w3.org/2000/svg">
<path d="M46 0C20.6172 0 0 20.6172 0 46C0 71.3828 20.6172 92 46 92C71.3828 92 92 71.3828 92 46C92 20.6172 71.3828 0 46 0ZM46 4C69.2188 4 88 22.7812 88 46C88 69.2188 69.2188 88 46 88C22.7812 88 4 69.2188 4 46C4 22.7812 22.7812 4 46 4ZM28 20C24.7109 20 22 22.7109 22 26C22 29.2891 24.7109 32 28 32C31.2891 32 34 29.2891 34 26C34 22.7109 31.2891 20 28 20ZM28 24C29.125 24 30 24.875 30 26C30 27.125 29.125 28 28 28C26.875 28 26 27.125 26 26C26 24.875 26.875 24 28 24ZM24 34C22.8984 34 22 34.8984 22 36V66C22 67.1016 22.8984 68 24 68H32C33.1016 68 34 67.1016 34 66V36C34 34.8984 33.1016 34 32 34H24ZM40 34C38.8984 34 38 34.8984 38 36V66C38 67.1016 38.8984 68 40 68H48C49.1016 68 50 67.1016 50 66V51C50 48.2422 52.2422 46 55 46C57.7578 46 60 48.2422 60 51V66C60 67.1016 60.8984 68 62 68H70C71.1016 68 72 67.1016 72 66V49C72 40.7422 65.2578 34 57 34C54.4297 34 52.1172 34.8359 50 35.9766C49.9922 34.8828 49.0938 34 48 34H40ZM26 38H30V64H26V38ZM42 38H46V39.6328C46 40.4375 46.4766 41.1563 47.2188 41.4766C47.9531 41.7891 48.8125 41.6328 49.3828 41.0781C51.3672 39.1719 54.0312 38 57 38C63.1016 38 68 42.8984 68 49V64H64V51C64 46.0625 59.9375 42 55 42C50.0625 42 46 46.0625 46 51V64H42V38Z" fill="#80ADBC"/>
</svg>
