<svg width="79" height="70" viewBox="0 0 79 70" fill="none" xmlns="http://www.w3.org/2000/svg">
<path d="M53.6799 0.271061C52.8071 0.258853 51.9221 0.319888 51.0554 0.448061C47.3872 0.985171 43.8594 2.79791 41.3997 5.99616C38.9399 9.1944 37.5911 13.7232 38.0061 19.4849C38.0427 20.0403 38.3784 20.5347 38.8789 20.7789C39.3794 21.023 39.9775 20.9864 40.4353 20.669C40.8992 20.3577 41.1616 19.8206 41.125 19.2652C40.7527 14.0894 41.9429 10.4151 43.8777 7.90045C45.8125 5.38581 48.5347 3.97589 51.5071 3.54254C57.4458 2.66364 64.123 5.81916 66.2043 12.0569C66.418 12.6978 67.0161 13.1251 67.6875 13.1251H74.145L69.5124 20.0709C69.3415 20.3272 69.25 20.6263 69.25 20.9376C69.25 35.5189 65.6245 45.5836 60.1863 52.4622C54.748 59.347 47.4421 63.1312 39.7944 64.9256C32.1406 66.72 24.1755 66.4881 17.6936 65.3223C13.1587 64.5106 9.86279 63.1983 7.48242 61.9715C11.0469 61.0315 18.6152 58.8343 26.7634 53.4266C31.7134 54.6229 35.3511 54.5435 37.8596 53.512C40.4719 52.4378 41.8696 50.2283 41.7903 48.1165C41.7048 46.0047 40.24 44.0699 38.0427 43.5145C35.8393 42.9651 33.1782 43.8502 30.6453 46.3953C29.2964 47.7503 27.5203 48.7757 25.8784 49.9232C15.5757 46.963 10.0276 41.4332 7.05517 36.4954C5.04711 33.1568 4.35742 30.691 4.00952 29.0064C5.28515 29.159 6.70727 29.3177 9.91772 29.7571C9.97875 29.8731 10.0276 30.0196 10.0947 30.1295C13.3906 35.6959 17.4311 38.6439 20.3181 39.6082C21.9111 40.1392 23.5347 39.8646 24.7432 39.1016C25.9517 38.3448 26.7939 37.1607 27.1907 35.8362C27.5874 34.5179 27.5325 32.992 26.7939 31.6553C26.0554 30.3187 24.6455 29.2689 22.7534 28.7928C19.9824 28.1031 15.8076 27.4866 12.0051 26.9373C9.82617 22.7076 8.28198 16.9153 8.28808 9.28595C12.408 14.1688 17.7607 18.8746 24.2244 22.1339C32.0796 26.1011 41.0579 28.0543 49.3892 25.5579C49.9446 25.4175 50.3779 24.9842 50.5183 24.4227C50.6587 23.8672 50.4817 23.2813 50.0544 22.8907C49.6333 22.5001 49.029 22.378 48.4858 22.5672C41.1921 24.7584 33.0012 23.0677 25.6282 19.3445C18.2612 15.6275 11.7793 9.8902 8.03784 4.42755C7.65942 3.88434 6.98193 3.6341 6.34106 3.80499C5.70019 3.982 5.23632 4.53742 5.18749 5.2027C4.55273 14.1627 5.99926 21.0901 8.26977 26.3819C5.32788 26.0096 2.23339 25.6312 2.23339 25.6312C1.76952 25.5823 1.30566 25.741 0.976069 26.0645C0.640376 26.3941 0.469477 26.8519 0.506097 27.3157C0.506097 27.3157 0.939446 32.3878 4.37573 38.1068C7.458 43.2215 13.2441 48.8123 22.8755 52.1448C13.7812 57.4488 3.27099 60.0367 3.27099 60.0367C2.71557 60.171 2.27612 60.586 2.12353 61.1353C1.96484 61.6785 2.11742 62.2645 2.52026 62.6673C5.04711 65.1941 10.2961 67.1717 17.1443 68.3985C23.9924 69.6253 32.3359 69.8816 40.5024 67.9651C48.675 66.0486 56.7012 61.9227 62.6399 54.397C68.5054 46.9752 72.2468 36.2757 72.3384 21.4625L78.3625 12.4293C78.6799 11.9471 78.7104 11.3306 78.4419 10.824C78.1672 10.3174 77.6362 10.0001 77.0625 10.0001H68.5603C65.9358 3.85993 59.8262 0.368717 53.6799 0.271061ZM14.4221 30.5323C17.1626 30.9595 20.1594 31.3685 21.9966 31.8262C23.2295 32.1375 23.7727 32.6502 24.0596 33.169C24.3464 33.6878 24.3892 34.3104 24.1999 34.939C24.0107 35.5738 23.5835 36.1475 23.083 36.4588C22.5825 36.7762 22.0576 36.8922 21.3069 36.6419C19.8237 36.1475 17.0283 33.9442 14.4282 30.5323H14.4221ZM36.5107 46.4869C36.8037 46.4686 37.0601 46.493 37.2798 46.5479C38.1465 46.7615 38.6348 47.4573 38.6653 48.2325C38.6897 49.0137 38.3601 49.9354 36.6755 50.619C35.4487 51.1255 33.1538 51.1683 30.2913 50.8021C31.1641 50.0818 32.0674 49.3922 32.8608 48.5987C34.3867 47.0667 35.6257 46.554 36.5107 46.4869Z" fill="#80ADBC"/>
</svg>
