<svg width="1440" height="286" viewBox="0 0 1440 286" fill="none" xmlns="http://www.w3.org/2000/svg">
<path d="M1440 162.99L1405.7 184.29C1371.4 205.99 1303 247.99 1234 232.29C1165.7 215.99 1097 141.99 1029 141.69C960 141.99 891 215.99 823 242.99C754.3 269.99 686 247.99 617 221.69C548.6 194.99 480 162.99 411 184.29C342.9 205.99 274 279.99 206 285.69C137.1 290.99 69 226.99 34 194.99L0 162.99V34.9901H34.3C68.6 34.9901 137 34.9901 206 34.9901C274.3 34.9901 343 34.9901 411 34.9901C480 34.9901 549 34.9901 617 34.9901C685.7 34.9901 754 34.9901 823 34.9901C891.4 34.9901 960 34.9901 1029 34.9901C1097.1 34.9901 1166 34.9901 1234 34.9901C1302.9 34.9901 1371 34.9901 1406 34.9901H1440V162.99Z" fill="#D9E6EC"/>
<path d="M1440 128L1405.7 149.3C1371.4 171 1303 213 1234 197.3C1165.7 181 1097 107 1029 106.7C960 107 891 181 823 208C754.3 235 686 213 617 186.7C548.6 160 480 128 411 149.3C342.9 171 274 245 206 250.7C137.1 256 69 192 34 160L0 128V-0.000152588H34.3C68.6 -0.000152588 137 -0.000152588 206 -0.000152588C274.3 -0.000152588 343 -0.000152588 411 -0.000152588C480 -0.000152588 549 -0.000152588 617 -0.000152588C685.7 -0.000152588 754 -0.000152588 823 -0.000152588C891.4 -0.000152588 960 -0.000152588 1029 -0.000152588C1097.1 -0.000152588 1166 -0.000152588 1234 -0.000152588C1302.9 -0.000152588 1371 -0.000152588 1406 -0.000152588H1440V128Z" fill="#DEE9EB"/>
</svg>
