<svg width="1440" height="424" viewBox="0 0 1440 424" fill="none" xmlns="http://www.w3.org/2000/svg">
<g clip-path="url(#clip0_3_2)">
<path d="M-110 312.6L-80.5188 303.375C-51.1479 293.453 8.14583 276.047 66.6667 238.275C125.519 201.2 184.812 145.5 243.333 99.0253C302.185 53.2469 361.479 14.9531 420 71.1753C478.852 126.353 538.146 276.047 596.667 312.6C655.519 349.153 714.812 276.047 773.333 266.125C832.185 256.9 891.479 312.6 950 293.975C1008.85 276.047 1068.15 182.053 1126.67 126.875C1185.52 70.6531 1244.81 53.2469 1303.33 71.1753C1362.19 89.8 1421.48 145.5 1450.19 173.35L1480 201.2V424H1450.52C1421.15 424 1361.85 424 1303.33 424C1244.48 424 1185.19 424 1126.67 424C1067.81 424 1008.52 424 950 424C891.148 424 831.854 424 773.333 424C714.481 424 655.188 424 596.667 424C537.815 424 478.521 424 420 424C361.148 424 301.854 424 243.333 424C184.481 424 125.187 424 66.6667 424C7.81458 424 -51.4792 424 -80.1875 424H-110V312.6Z" fill="#D9E6EC"/>
<path d="M-77 339.2L-48.7425 332.178C-20.5908 324.625 36.2417 311.375 92.3333 282.623C148.742 254.4 205.575 212 261.667 176.623C318.076 141.775 374.908 112.625 431 155.423C487.409 197.425 544.242 311.375 600.333 339.2C656.742 367.025 713.575 311.375 769.667 303.823C826.076 296.8 882.908 339.2 939 325.023C995.409 311.375 1052.24 239.825 1108.33 197.823C1164.74 155.025 1221.57 141.775 1277.67 155.423C1334.08 169.6 1390.91 212 1418.42 233.2L1447 254.4V424H1418.74C1390.59 424 1333.76 424 1277.67 424C1221.26 424 1164.42 424 1108.33 424C1051.92 424 995.092 424 939 424C882.591 424 825.758 424 769.667 424C713.257 424 656.425 424 600.333 424C543.924 424 487.092 424 431 424C374.591 424 317.758 424 261.667 424C205.257 424 148.425 424 92.3333 424C35.9242 424 -20.9083 424 -48.425 424H-77V339.2Z" fill="#DEE9EB"/>
</g>
<defs>
<clipPath id="clip0_3_2">
<rect width="1524" height="424" fill="white" transform="translate(-77)"/>
</clipPath>
</defs>
</svg>
