<svg width="1440" height="393" viewBox="0 0 1440 393" fill="none" xmlns="http://www.w3.org/2000/svg">
<g clip-path="url(#clip0_16_23)">
<path d="M1545 111.4L1515.52 120.625C1486.15 130.547 1426.85 147.953 1368.33 185.725C1309.48 222.8 1250.19 278.5 1191.67 324.975C1132.81 370.753 1073.52 409.047 1015 352.825C956.148 297.647 896.854 147.953 838.333 111.4C779.481 74.8468 720.188 147.953 661.667 157.875C602.815 167.1 543.521 111.4 485 130.025C426.148 147.953 366.854 241.947 308.333 297.125C249.481 353.347 190.188 370.753 131.667 352.825C72.8146 334.2 13.5209 278.5 -15.1874 250.65L-44.9999 222.8V-0.000112123H-15.5187C13.8521 -0.000112123 73.1459 -0.000112123 131.667 -0.000112123C190.519 -0.000112123 249.813 -0.000112123 308.333 -0.000112123C367.185 -0.000112123 426.479 -0.000112123 485 -0.000112123C543.852 -0.000112123 603.146 -0.000112123 661.667 -0.000112123C720.519 -0.000112123 779.813 -0.000112123 838.333 -0.000112123C897.185 -0.000112123 956.479 -0.000112123 1015 -0.000112123C1073.85 -0.000112123 1133.15 -0.000112123 1191.67 -0.000112123C1250.52 -0.000112123 1309.81 -0.000112123 1368.33 -0.000112123C1427.19 -0.000112123 1486.48 -0.000112123 1515.19 -0.000112123H1545V111.4Z" fill="#D9E6EC"/>
<path d="M1539 78.6L1509.63 85.1091C1480.37 92.1094 1421.3 104.391 1363 131.041C1304.37 157.2 1245.3 196.5 1187 229.291C1128.37 261.591 1069.3 288.609 1011 248.941C952.37 210.009 893.3 104.391 835 78.6C776.37 52.8094 717.3 104.391 659 111.391C600.37 117.9 541.3 78.6 483 91.741C424.37 104.391 365.3 170.709 307 209.641C248.37 249.309 189.3 261.591 131 248.941C72.37 235.8 13.3 196.5 -15.3 176.85L-45 157.2V4.33161e-05H-15.6301C13.6299 4.33161e-05 72.7 4.33161e-05 131 4.33161e-05C189.63 4.33161e-05 248.7 4.33161e-05 307 4.33161e-05C365.63 4.33161e-05 424.7 4.33161e-05 483 4.33161e-05C541.63 4.33161e-05 600.7 4.33161e-05 659 4.33161e-05C717.63 4.33161e-05 776.7 4.33161e-05 835 4.33161e-05C893.63 4.33161e-05 952.7 4.33161e-05 1011 4.33161e-05C1069.63 4.33161e-05 1128.7 4.33161e-05 1187 4.33161e-05C1245.63 4.33161e-05 1304.7 4.33161e-05 1363 4.33161e-05C1421.63 4.33161e-05 1480.7 4.33161e-05 1509.3 4.33161e-05H1539V78.6Z" fill="#CCDCE2"/>
</g>
<defs>
<clipPath id="clip0_16_23">
<rect width="1584" height="393" fill="white" transform="translate(1539 393) rotate(-180)"/>
</clipPath>
</defs>
</svg>
