<svg width="1437" height="249" viewBox="0 0 1437 249" fill="none" xmlns="http://www.w3.org/2000/svg">
<path d="M0 123.01L34.3 101.71C68.6 80.0099 137 38.0099 206 53.7099C274.3 70.0099 343 144.01 411 144.31C480 144.01 549 70.0099 617 43.0099C685.7 16.0099 754 38.0099 823 64.3099C891.4 91.0099 960 123.01 1029 101.71C1097.1 80.0099 1166 6.00992 1234 0.30992C1302.9 -4.99008 1371 59.0099 1406 91.0099L1440 123.01V251.01H1405.7C1371.4 251.01 1303 251.01 1234 251.01C1165.7 251.01 1097 251.01 1029 251.01C960 251.01 891 251.01 823 251.01C754.3 251.01 686 251.01 617 251.01C548.6 251.01 480 251.01 411 251.01C342.9 251.01 274 251.01 206 251.01C137.1 251.01 69 251.01 34 251.01H0V123.01Z" fill="#D9E6EC"/>
<path d="M0 158L34.3 136.7C68.6 115 137 73 206 88.7C274.3 105 343 179 411 179.3C480 179 549 105 617 78C685.7 51 754 73 823 99.3C891.4 126 960 158 1029 136.7C1097.1 115 1166 41 1234 35.3C1302.9 30 1371 94 1406 126L1440 158V286H1405.7C1371.4 286 1303 286 1234 286C1165.7 286 1097 286 1029 286C960 286 891 286 823 286C754.3 286 686 286 617 286C548.6 286 480 286 411 286C342.9 286 274 286 206 286C137.1 286 69 286 34 286H0V158Z" fill="#DEE9EB"/>
</svg>
